<svg xmlns="http://www.w3.org/2000/svg" version="1.1" xmlns:xlink="http://www.w3.org/1999/xlink" xmlns:svgjs="http://svgjs.dev/svgjs" viewBox="0 0 800 800"><defs><linearGradient x1="50%" y1="0%" x2="50%" y2="100%" id="ccchaos-grad"><stop stop-color="hsl(262.1, 83.3%, 57.8%)" stop-opacity="1" offset="0%"></stop><stop stop-color="hsl(331, 96%, 47%)" stop-opacity="1" offset="100%"></stop></linearGradient></defs><g stroke-width="2" stroke="url(#ccchaos-grad)" fill="none" stroke-linecap="round"><path d="M390.55 117.24C388.98 106 408.29 112.39 423.92 128.27Q433.3 138.14 442.03 147.98 449.84 157.77 456.48 167.5 461.8 177.15 465.7 186.7 468.17 196.14 469.29 205.44 469.22 214.6 468.17 223.6 466.46 232.43 464.4 241.08 461.07 257.72 459.91 273.76 465.06 288.81 474.88 303.27 482.48 310.19 491.42 316.94 501.43 323.54 512.18 330.01 523.31 336.35 534.41 342.6 545.07 348.77 554.91 354.89 563.58 360.98 570.8 367.06 579.31 379.33 582.64 391.82 578.92 404.91 572.8 418.51 566.89 433.16 563.66 448.55 564.51 456.71 567.17 465.15 571.76 473.88 578.27 482.91 586.6 492.23 596.52 501.83 607.73 511.72 619.83 521.89 632.36 532.31 644.84 542.99 656.79 553.89 667.75 565 677.29 576.3 685.11 587.75 690.95 599.33 694.69 611.02 696.34 622.77 696.03 634.56 693.97 646.36 690.53 658.12 686.13 669.81 681.27 681.4C674.5 697.83 653.5 706.3 640.47 695.47Q624.4 681.3 608.34 668.29 592.27 658.48 576.2 653.41 560.13 653.88 544.07 659.8 528 670.26 511.93 683.61 495.87 697.76 479.8 710.51 463.73 719.84 447.67 724.31 431.6 723.21 415.53 716.71 399.47 705.83 383.4 692.28 367.33 678.18 351.27 665.72 335.2 656.88 319.13 653.02 303.07 654.76 287 661.82 270.93 673.09 254.87 686.82 238.8 700.84 222.73 712.98 206.67 721.32 190.6 724.56 174.53 722.19 158.47 714.58 142.4 702.93 126.33 689.06C113.3 677.67 107.07 656.8 115.38 649.35Q127.29 639.22 138.97 629.08 149.19 618.61 158.04 607.74 164.31 595.94 169.21 583.46 172.76 569.64 176.3 554.97 178.43 547.11 181 538.96 184.11 530.51 187.85 521.77 192.27 512.75 197.4 503.47 203.19 493.93 209.57 484.15 216.43 474.16 223.63 463.97 230.99 453.6 238.34 443.09 245.48 432.45 252.22 421.71 258.4 410.89 263.89 400.03 268.57 389.15 272.4 378.27 275.38 367.42 277.54 356.62 278.98 345.91 279.85 335.29 280.33 324.79 280.63 314.42 280.97 304.21 281.58 294.17 282.69 284.31 284.49 274.65 287.13 265.17 290.75 255.91 295.38 246.84 301.04 237.99 307.66 229.33 315.12 220.88 323.24 212.62 331.81 204.55 340.58 196.66 349.29 188.92 357.65 181.34 365.43 173.9 372.38 166.58 378.33 159.36 386.19 145.19 390.56 131.17 390.74 120.72 390.55 117.24" stroke-dasharray="8 1" transform="rotate(0, 400, 400)" opacity="0.65"></path><path d="M397.04 128.05C396.35 117.31 415.24 123.65 429.59 138.97Q437.74 148.5 444.98 158 451.14 167.47 456.06 176.87 459.69 186.2 462.02 195.44 463.12 204.58 463.12 213.6 462.23 222.49 460.7 231.23 457.04 248.15 454.23 264.56 455.71 280.04 461.05 294.96 466.23 302.1 472.83 309.05 480.74 315.82 489.76 322.43 499.65 328.89 510.09 335.21 520.75 341.39 531.27 347.47 541.3 353.45 550.49 359.35 564.52 371.01 574.06 382.63 575.8 394.43 573.58 406.46 567.55 419.12 561.39 432.28 558.77 446.46 560.2 461.35 563.78 469.23 569.14 477.38 576.23 485.81 584.9 494.5 594.93 503.48 606 512.72 617.74 522.23 629.75 531.99 641.6 542.01 652.86 552.26 663.14 562.73 672.07 573.39 679.38 584.24 684.88 595.24 688.45 606.38 690.1 617.62 689.94 628.93 688.17 640.3 685.08 651.68 681.05 663.06C674.44 679.32 652.29 686.56 639.59 675.65Q623.92 662.58 608.26 651.69 592.6 644.57 576.94 642.23 561.27 645.02 545.61 652.54 529.95 663.7 514.28 676.87 498.62 690.16 482.96 701.63 467.29 709.62 451.63 712.98 435.97 711.22 420.3 704.59 404.64 694.05 388.98 681.13 373.31 667.71 357.65 655.73 341.99 646.92 326.32 642.56 310.66 643.28 295 648.99 279.33 658.84 263.67 671.42 248.01 684.9 232.34 697.32 216.68 706.9 201.02 712.23 185.35 712.55 169.69 707.81 154.03 698.69 138.36 686.53C125.66 675.62 120.16 654.98 128.5 648.06Q139.96 638.31 150.82 628.32 159.83 617.66 167.38 606.46 172.54 594.15 176.56 581.08 179.74 566.67 183.19 551.41 185.41 543.3 188.1 534.92 191.36 526.27 195.25 517.37 199.8 508.23 205 498.86 210.81 489.28 217.16 479.51 223.92 469.58 230.96 459.49 238.13 449.27 245.25 438.95 252.15 428.54 258.65 418.08 264.63 407.58 269.94 397.07 274.49 386.58 278.25 376.12 281.19 365.71 283.35 355.38 284.82 345.15 285.71 335.04 286.19 325.05 286.43 315.21 286.65 305.53 287.04 296.02 287.81 286.69 289.15 277.55 291.22 268.59 294.16 259.83 298.03 251.26 302.87 242.89 308.65 234.7 315.31 226.71 322.73 218.89 330.72 211.24 339.09 203.75 347.6 196.41 356.02 189.2 364.1 182.12 371.62 175.15 378.36 168.27 388.36 154.75 395.07 141.36 396.78 131.38 397.04 128.05" stroke-dasharray="8 7" transform="rotate(4.04, 400, 400)" opacity="0.23"></path><path d="M402.37 138.89C403.16 128.62 421.55 134.88 433.95 149.66Q446.17 168.02 453.9 186.22 456.97 204.16 456.16 221.73 453.04 238.81 449.7 255.34 448.33 271.23 450.83 286.43 458.35 300.93 471.09 314.73 488.21 327.84 507.97 340.34 528.05 352.31 546.01 363.84 559.73 375.08 567.91 386.16 570.3 397.25 567.79 408.51 562.29 420.12 556.35 432.22 552.66 444.97 553.55 458.5 560.5 472.91 573.83 488.29 592.57 504.69 614.67 522.1 637.37 540.52 657.71 559.87 673.13 580.06 681.98 600.95 683.88 622.38 679.84 644.16C674.44 659.94 652.57 666.42 640.17 656.14Q624.89 644.82 609.61 636.4 594.32 632.01 579.04 632.24 563.76 637.04 548.48 645.79 533.19 657.31 517.91 670.06 502.63 682.34 487.35 692.5 472.06 699.19 456.78 701.52 441.5 699.17 426.22 692.45 410.93 682.27 395.65 669.98 380.37 657.23 365.09 645.73 349.8 637 334.52 632.22 319.24 632.03 303.96 636.44 288.67 644.88 273.39 656.21 258.11 668.92 242.82 681.31 227.54 691.73 212.26 698.77 196.98 701.5 181.69 699.56 166.41 693.2 151.13 683.28C138.73 673.5 133.67 653.59 141.81 646.85Q152.65 637.16 162.3 626.9 170.23 615.92 176.25 604.07 180.55 591.28 183.7 577.46 186.58 562.59 190.16 546.7 195.35 529.82 202.81 512.05 212.73 493.48 224.83 474.26 238.34 454.54 252.18 434.48 265.1 414.25 275.99 394.02 284.09 373.95 289.17 354.19 291.59 334.88 292.3 316.12 292.63 298 294.06 280.57 297.92 263.87 305.1 247.9 315.87 232.62 329.77 218 345.71 203.96 362.1 190.4 377.24 177.23 389.56 164.33 400.21 145.24 402.37 138.89" stroke-dasharray="1 0" transform="rotate(8.08, 400, 400)" opacity="0.73"></path><path d="M406.07 149.72C408.73 139.95 426.58 146.12 436.56 160.34Q445.45 178.01 450.07 195.54 450.79 212.84 448.71 229.8 445.47 246.34 443 262.36 443.12 277.81 447.26 292.63 456.14 306.79 469.62 320.29 486.74 333.14 505.81 345.38 524.75 357.07 541.46 368.3 554.16 379.18 561.77 389.81 564.12 400.34 561.98 410.92 556.99 421.68 551.32 432.78 547.36 444.37 547.21 456.56 552.36 469.49 563.35 483.24 579.66 497.89 599.81 513.47 621.55 530.02 642.3 547.49 659.62 565.86 671.61 585.03 677.31 604.9 676.89 625.33C673.48 640.29 653.19 646.52 641.11 637.46Q626.21 628.37 611.31 622.6 596.42 620.86 581.52 623.38 566.62 629.83 551.72 639.42 536.83 650.99 521.93 663.09 507.03 674.26 492.14 683.11 477.24 688.56 462.34 689.94 447.44 687.07 432.55 680.32 417.65 670.51 402.75 658.84 387.86 646.76 372.96 635.74 358.06 627.14 343.16 622.01 328.27 620.99 313.37 624.21 298.47 631.26 283.57 641.28 268.68 653.03 253.78 665.09 238.88 675.95 223.98 684.29 209.09 689.09 194.19 689.75 179.29 686.19 164.39 678.85C152.31 670.73 147.41 651.98 155.08 645.14Q164.9 635.12 173.25 624.38 179.82 612.81 184.62 600.33 188.03 586.89 190.69 572.48 193.46 557.11 197.22 540.83 202.75 523.72 210.5 505.88 220.56 487.42 232.56 468.49 245.75 449.22 259.12 429.77 271.55 410.29 282.04 390.93 289.93 371.83 294.97 353.1 297.46 334.85 298.2 317.17 298.34 300.12 299.2 283.74 302.03 268.04 307.77 253.02 316.85 238.63 329.11 224.84 343.78 211.56 359.62 198.72 375.11 186.22 388.74 173.96 402.68 155.77 406.07 149.72" stroke-dasharray="10 1" transform="rotate(12.12, 400, 400)" opacity="0.32"></path><path d="M407.87 160.57C412.54 151.28 429.76 157.35 437.11 171Q442.8 187.98 444.77 204.83 443.77 221.48 441.06 237.83 438.23 253.8 436.95 269.31 438.66 284.3 444.36 298.72 454.39 312.53 468.39 325.73 485.32 338.31 503.59 350.29 521.37 361.74 536.85 372.7 548.56 383.26 555.63 393.52 557.93 403.58 556.14 413.58 551.64 423.64 546.3 433.89 542.17 444.46 541.16 455.48 544.7 467.07 553.49 479.33 567.37 492.35 585.32 506.19 605.62 520.9 626.12 536.49 644.58 552.96 659.05 570.27 668.21 588.36 671.59 607.14C670.68 621.02 653.01 627.39 641.27 620.01Q626.79 613.44 612.31 610.34 597.83 611.07 583.34 615.53 568.86 623.24 554.38 633.32 539.9 644.63 525.42 655.91 510.94 665.89 496.46 673.43 481.98 677.7 467.5 678.22 453.02 674.91 438.54 668.17 424.06 658.74 409.58 647.69 395.1 636.25 380.62 625.73 366.14 617.3 351.66 611.9 337.18 610.16 322.7 612.25 308.22 617.96 293.74 626.63 279.26 637.29 264.78 648.74 250.3 659.7 235.82 668.92 221.34 675.37 206.86 678.33 192.38 677.46 177.9 672.86C166.15 666.74 161.1 649.52 168.06 642.37Q176.62 631.8 183.57 620.43 188.81 608.19 192.54 595.06 195.23 581.02 197.58 566.11 200.4 550.36 204.44 533.86 210.33 516.68 218.36 498.95 228.51 480.77 240.37 462.28 253.2 443.61 266.07 424.9 278 406.28 288.1 387.87 295.75 369.79 300.76 352.13 303.33 334.97 304.13 318.38 304.15 302.4 304.55 287.06 306.48 272.34 310.89 258.25 318.33 244.73 328.86 231.75 342.02 219.23 356.89 207.08 372.21 195.24 386.61 183.6 403.34 166.32 407.87 160.57" stroke-dasharray="4 8" transform="rotate(16.16, 400, 400)" opacity="0.40"></path><path d="M407.64 171.44C414.24 162.62 430.73 168.57 435.49 181.66Q438.36 197.94 438.29 214.11 436.24 230.09 433.51 245.82 431.53 261.21 431.66 276.19 434.97 290.7 442.09 304.7 453.07 318.15 467.37 331.02 483.92 343.33 501.29 355.07 517.88 366.27 532.17 376.99 542.94 387.28 549.49 397.22 551.74 406.9 550.27 416.42 546.25 425.9 541.26 435.43 537.07 445.15 535.36 455.16 537.5 465.59 544.26 476.52 555.76 488.06 571.38 500.29 589.87 513.26 609.5 527.02 628.33 541.6 644.51 556.99 656.55 573.18 663.55 590.12C665.36 602.73 651.01 609.59 639.64 604.17Q625.63 600.23 611.62 599.67 597.6 602.55 583.59 608.59 569.58 617.14 555.57 627.35 541.56 638.16 527.54 648.46 513.53 657.2 499.52 663.48 485.51 666.65 471.5 666.38 457.48 662.72 443.47 656.03 429.46 646.99 415.45 636.55 401.44 625.76 387.42 615.73 373.41 607.5 359.4 601.91 345.39 599.53 331.38 600.61 317.37 605.03 303.35 612.35 289.34 621.81 275.33 632.43 261.32 643.14 247.31 652.83 233.3 660.51 219.28 665.38 205.27 666.96 191.26 665.07C179.9 661.12 174.45 645.67 180.5 638.07Q187.65 626.83 193.19 614.77 197.21 601.88 200.04 588.16 202.23 573.64 204.46 558.38 207.46 542.43 211.85 525.88 218.1 508.82 226.38 491.38 236.58 473.65 248.24 455.76 260.67 437.83 273.04 419.98 284.45 402.3 294.14 384.92 301.57 367.9 306.53 351.34 309.19 335.28 310.08 319.78 310.05 304.86 310.1 290.54 311.27 276.79 314.48 263.6 320.35 250.94 329.13 238.74 340.61 226.96 354.16 215.5 368.81 204.31 383.39 193.29 402.16 176.9 407.64 171.44" stroke-dasharray="3 6" transform="rotate(20.200000000000003, 400, 400)" opacity="0.73"></path><path d="M405.46 182.31C413.69 173.97 429.34 179.78 431.82 192.3Q432.43 207.87 431.01 223.34 428.59 238.66 426.38 253.75 425.58 268.55 427.23 282.98 432.08 297 440.43 310.56 452.11 323.62 466.48 336.17 482.51 348.18 498.91 359.66 514.31 370.63 527.43 381.12 537.29 391.18 543.34 400.85 545.54 410.22 544.38 419.36 540.83 428.35 536.22 437.31 532.05 446.32 529.81 455.49 530.74 464.92 535.67 474.71 544.9 484.95 558.14 495.73 574.54 507.11 592.78 519.17 611.27 531.94 628.35 545.45 642.51 559.71 652.64 574.71C657.07 585.96 646.35 593.48 635.42 590.16Q621.94 588.78 608.47 590.51 594.99 595.18 581.51 602.36 568.03 611.37 554.56 621.39 541.08 631.48 527.6 640.69 514.12 648.17 500.65 653.22 487.17 655.37 473.69 654.43 460.22 650.47 446.74 643.88 433.26 635.25 419.78 625.4 406.31 615.24 392.83 605.72 379.35 597.73 365.87 592.01 352.4 589.09 338.92 589.25 325.44 592.47 311.96 598.45 298.48 606.63 285.01 616.25 271.53 626.42 258.05 636.19 244.57 644.65 231.1 651 217.62 654.67 204.14 655.3C193.21 653.53 187.17 640 192.18 631.89Q197.86 619.95 202.08 607.26 205.05 593.81 207.21 579.65 209.11 564.81 211.4 549.38 214.68 533.42 219.47 517.03 226.08 500.29 234.57 483.31 244.75 466.2 256.17 449.06 268.18 431.98 280.01 415.08 290.91 398.43 300.19 382.11 307.38 366.2 312.28 350.75 315.03 335.8 316.04 321.38 316.01 307.51 315.82 294.18 316.37 281.38 318.53 269.08 322.96 257.24 330.02 245.81 339.71 234.74 351.68 223.96 365.23 213.4 379.41 202.99 399.32 187.48 405.46 182.31" stroke-dasharray="1 10" transform="rotate(24.24, 400, 400)" opacity="0.95"></path><path d="M401.59 193.21C410.97 185.31 425.74 190.98 426.36 202.94Q425.43 217.79 423.37 232.57 421.19 247.21 419.92 261.65 420.52 275.83 423.73 289.7 429.98 303.21 439.34 316.31 451.48 328.96 465.72 341.15 481.08 352.86 496.44 364.07 510.63 374.8 522.63 385.07 531.63 394.91 537.2 404.35 539.34 413.46 538.45 422.28 535.35 430.9 531.14 439.39 525.74 456.38 527.7 473.76 534.82 482.89 545.7 492.42 559.83 502.4 576.27 512.91 593.77 524.02 610.95 535.75 626.4 548.15 638.93 561.24C645.64 571.08 638.53 579.37 628.09 578.12Q615.22 579.09 602.35 582.74 589.48 588.77 576.6 596.68 563.73 605.78 550.86 615.33 537.99 624.51 525.11 632.56 512.24 638.79 499.37 642.68 486.5 643.91 473.62 642.37 460.75 638.2 447.88 631.73 435.01 623.52 422.13 614.26 409.26 604.72 396.39 595.71 383.52 587.99 370.64 582.21 357.77 578.84 344.9 578.19 332.03 580.29 319.15 584.98 306.28 591.86 293.41 600.35 280.53 609.74 267.66 619.23 254.79 628.03 241.92 635.4 229.04 640.71 216.17 643.53C205.74 643.81 199.02 632.2 202.96 623.61Q207.23 611.06 210.29 597.85 212.44 584.01 214.16 569.59 215.99 554.65 218.48 539.26 222.14 523.51 227.35 507.47 234.28 491.24 242.93 474.9 253.03 458.56 264.16 442.29 275.7 426.18 286.99 410.3 297.36 394.73 306.22 379.53 313.17 364.75 318.02 350.41 320.84 336.56 321.99 323.21 322.03 310.36 321.68 298 321.76 286.12 323.03 274.68 326.17 263.64 331.6 252.97 339.48 242.6 349.69 232.47 361.77 222.54 375.04 212.72 395.11 198.09 401.59 193.21" stroke-dasharray="6 11" transform="rotate(28.28, 400, 400)" opacity="0.53"></path><path d="M396.45 204.1C406.39 196.68 420.23 202.19 419.59 213.55Q417.85 227.68 415.83 241.75 414.4 255.7 414.38 269.49 416.49 283.05 421.18 296.34 428.64 309.31 438.75 321.93 451.1 334.16 465 345.97 479.57 357.34 493.84 368.27 506.85 378.76 517.76 388.8 525.94 398.43 531.06 407.67 531.48 425 526.02 441.57 520.27 457.52 520.33 473.52 525.53 481.74 534.15 490.21 545.94 499 560.29 508.17 576.28 517.8 592.81 527.93 608.68 538.61 622.75 549.87C631.22 558.35 627.35 567.41 617.45 568.05Q605.25 571.03 593.06 576.18 580.86 583.12 568.66 591.34 556.46 600.19 544.26 609.03 532.06 617.18 519.87 624.02 507.67 629.03 495.47 631.85 483.27 632.25 471.07 630.21 458.87 625.87 446.67 619.57 434.47 611.79 422.28 603.11 410.08 594.18 397.88 585.69 385.68 578.26 373.48 572.48 361.28 568.76 349.08 567.4 336.88 568.5 324.69 571.96 312.49 577.54 300.29 584.81 288.09 593.21 275.89 602.12 263.69 610.87 251.49 618.78 239.29 625.27 227.09 629.84C217.19 631.89 209.84 622.14 212.74 613.15Q215.77 600.17 217.9 586.64 219.5 572.62 221.02 558.16 222.97 543.34 225.8 528.22 229.89 512.88 235.5 497.4 242.72 481.85 251.45 466.32 261.42 450.87 272.2 435.58 283.26 420.52 293.99 405.74 303.82 391.29 312.26 377.22 318.96 363.57 323.73 350.35 326.64 337.58 327.94 325.28 328.08 313.42 327.68 302.01 327.41 291.01 327.97 280.4 329.98 270.15 333.92 260.2 340.05 250.51 348.41 241.03 358.78 231.7 370.69 222.48 389.97 208.7 396.45 204.1" stroke-dasharray="0 10" transform="rotate(32.32, 400, 400)" opacity="0.65"></path><path d="M390.55 215.02C400.46 208.05 413.34 213.38 412.07 224.16Q410.24 237.56 408.83 250.92 408.53 264.17 409.95 277.28 413.55 290.21 419.56 302.9 427.99 315.32 438.6 327.43 450.92 339.2 464.3 350.61 477.98 361.63 491.13 372.25 502.97 382.46 512.83 392.28 520.23 401.69 524.91 410.73 525.58 427.64 520.87 443.7 514.99 458.85 513.52 473.78 517.03 481.27 523.55 488.9 533.02 496.7 545.11 504.76 559.2 513.13 574.47 521.87 589.94 531.03 604.64 540.65C614.19 547.89 612.96 557.59 603.65 559.85Q592.18 564.39 580.72 570.58 569.25 578 557.78 586.14 546.32 594.46 534.85 602.4 523.38 609.42 511.92 615.05 500.45 618.91 488.98 620.73 477.52 620.4 466.05 617.94 454.59 613.51 443.12 607.42 431.65 600.06 420.19 591.95 408.72 583.62 397.25 575.64 385.79 568.55 374.32 562.82 362.86 558.85 351.39 556.89 339.92 557.08 328.46 559.41 316.99 563.73 305.52 569.73 294.06 577.02 282.59 585.1 271.13 593.43 259.66 601.44 248.19 608.61 236.73 614.43C227.42 617.91 219.55 609.82 221.53 600.6Q223.57 587.4 225.05 573.79 226.36 559.83 227.93 545.59 230.15 531.12 233.41 516.49 237.96 501.77 243.95 487.03 251.4 472.32 260.15 457.72 269.91 443.28 280.3 429.06 290.83 415.11 300.99 401.46 310.28 388.16 318.3 375.23 324.73 362.7 329.42 350.58 332.4 338.88 333.85 327.59 334.15 316.7 333.76 306.2 333.28 296.06 333.29 286.26 334.37 276.75 336.99 267.51 341.49 258.49 348.02 249.64 356.52 240.91 366.76 232.27 384.42 219.34 390.55 215.02" stroke-dasharray="2 9" transform="rotate(36.36, 400, 400)" opacity="0.11"></path><path d="M384.52 225.95C393.85 219.42 405.75 224.56 404.44 234.75Q403.15 247.42 402.78 260.04 403.85 272.59 406.74 285.02 411.72 297.29 418.83 309.37 427.96 321.21 438.79 332.79 450.85 344.08 463.56 355.06 476.26 365.69 488.27 375.98 498.97 385.9 507.83 395.46 514.49 404.65 518.77 413.49 519.66 430.02 515.66 445.67 509.84 460.21 507.21 474.34 509.28 481.28 513.9 488.25 521.18 495.29 530.96 502.46 542.9 509.81 556.41 517.4 570.79 525.27 585.23 533.48C595.21 539.62 595.82 549.79 587.15 553.29Q576.46 558.92 565.77 565.67 555.08 573.14 544.38 580.88 533.69 588.43 523 595.34 512.31 601.19 501.62 605.64 490.93 608.41 480.24 609.35 469.54 608.39 458.85 605.6 448.16 601.14 437.47 595.28 426.78 588.36 416.09 580.81 405.4 573.07 394.71 565.61 384.01 558.86 373.32 553.25 362.63 549.09 351.94 546.65 341.25 546.06 330.56 547.36 319.87 550.47 309.18 555.21 298.48 561.29 287.79 568.36 277.1 575.98 266.41 583.7 255.72 591.07 245.03 597.63C236.36 602.1 228.18 595.45 229.46 586.16Q230.8 573 231.94 559.58 233.23 545.94 235.03 532.15 237.67 518.26 241.4 504.33 246.4 490.42 252.73 476.57 260.32 462.84 269.01 449.28 278.51 435.94 288.45 422.84 298.43 410.03 308 397.55 316.75 385.4 324.33 373.61 330.49 362.19 335.08 351.14 338.12 340.46 339.73 330.16 340.2 320.2 339.91 310.58 339.33 301.27 338.96 292.24 339.31 283.46 340.82 274.9 343.86 266.52 348.64 258.28 355.26 250.15 363.64 242.07 379.02 229.98 384.52 225.95" stroke-dasharray="8 0" transform="rotate(40.400000000000006, 400, 400)" opacity="0.73"></path><path d="M378.97 236.88C387.22 230.81 398.19 235.74 397.36 245.32Q397.08 257.25 398.03 269.15 400.54 280.98 404.82 292.71 410.97 304.31 418.92 315.75 428.45 327 439.24 338.03 450.85 348.81 462.75 359.32 474.4 369.54 485.27 379.45 494.86 389.06 502.77 398.33 508.74 407.28 512.62 415.91 513.7 432.07 510.39 447.36 504.81 461.44 501.37 474.98 506.36 487.99 518.03 500.95 527.69 507.51 539.13 514.2 551.86 521.04 565.28 528.1C575 533.33 576.66 543.72 568.64 548.06Q558.75 554.28 548.86 561.15 538.97 568.3 529.08 575.36 519.18 581.96 509.29 587.75 499.4 592.43 489.51 595.75 479.62 597.53 469.73 597.69 459.84 596.21 449.95 593.17 440.06 588.74 430.17 583.13 420.27 576.66 410.38 569.66 400.49 562.5 390.6 555.55 380.71 549.18 370.82 543.72 360.93 539.47 351.04 536.64 341.14 535.39 331.25 535.77 321.36 537.78 311.47 541.29 301.58 546.14 291.69 552.06 281.8 558.75 271.91 565.85 262.01 572.98 252.12 579.78C244.1 584.8 235.9 579.32 236.71 570.19Q237.69 557.34 238.78 544.37 240.28 531.3 242.48 518.19 245.61 505.09 249.83 492.03 255.23 479.08 261.81 466.25 269.47 453.6 278.02 441.16 287.18 428.97 296.64 417.04 306.04 405.4 315.01 394.07 323.22 383.06 330.36 372.38 336.23 362.04 340.72 352.03 343.79 342.35 345.56 332.99 345.87 315.27 344.92 298.34 345.94 282.44 350.37 266.98 355.18 259.42 361.63 251.91 374.3 240.64 378.97 236.88" stroke-dasharray="2 11" transform="rotate(44.44, 400, 400)" opacity="0.67"></path><path d="M374.47 247.84C381.31 242.2 391.4 246.91 391.42 255.89Q392.43 267.07 394.8 278.23 398.69 289.33 404.18 300.36 411.24 311.28 419.71 322.06 429.36 332.69 439.87 343.13 450.83 353.37 461.81 363.39 472.39 373.16 482.12 382.67 490.64 391.92 497.65 400.88 505.59 417.79 508.38 433.84 504.78 448.53 499.62 462.48 496.59 475.4 497.45 487.88 500.93 493.93 506.4 499.93 513.82 505.92 523.03 511.92 533.74 517.99 545.54 524.15C554.45 528.67 556.4 539.02 549.03 543.78Q539.94 550.12 530.86 556.7 521.77 563.23 512.68 569.41 503.59 574.94 494.51 579.58 485.42 583.12 476.33 585.39 467.25 586.29 458.16 585.78 449.07 583.88 439.98 580.67 430.9 576.32 421.81 571 412.72 564.98 403.64 558.52 394.55 551.92 385.46 545.48 376.38 539.5 367.29 534.26 358.2 529.98 349.11 526.88 340.03 525.08 330.94 524.68 321.85 525.69 312.77 528.06 303.68 531.69 294.59 536.41 285.51 542 276.42 548.22 267.33 554.76 258.25 561.34C250.87 566.49 242.99 561.86 243.58 553.09Q244.52 540.83 245.82 528.55 247.72 516.27 250.42 504.04 254.06 491.9 258.75 479.87 264.49 467.98 271.23 456.28 278.86 444.78 287.17 433.51 295.94 422.49 304.87 411.74 313.67 401.27 322.03 391.08 329.69 381.19 336.39 371.59 341.97 362.29 346.32 353.28 350.81 336.22 352.25 319.91 351.18 304.66 350.54 289.92 353.86 275.76 361 261.78 370.76 251.33 374.47 247.84" stroke-dasharray="10 11" transform="rotate(48.48, 400, 400)" opacity="0.32"></path><path d="M371.51 258.8C376.78 253.59 386.04 258.07 387.11 266.44Q389.52 276.87 393.24 287.28 398.32 297.64 404.73 307.95 412.38 318.17 421.07 328.28 430.56 338.27 440.56 348.11 450.73 357.78 460.72 367.27 470.18 376.56 478.8 385.63 486.31 394.47 492.47 403.08 499.57 419.42 502.28 435 499.35 449.34 494.8 462.97 491.27 475.55 490.53 487.61 496.99 499.01 508.45 510.17 516.95 515.68 526.74 521.2C534.41 525.2 535.99 535.22 529.25 540Q512.66 552.02 496.07 562.84 479.48 570.76 462.89 574.55 446.3 573.62 429.71 568.11 413.12 558.87 396.53 547.37 379.94 535.4 363.35 524.83 346.76 517.32 330.16 514.04 313.57 515.51 296.98 521.5 280.39 531.07 263.8 542.72C257.07 547.63 249.79 543.61 250.41 535.37Q251.6 523.94 253.31 512.56 255.72 501.26 258.96 490.07 263.1 479.01 268.18 468.1 274.16 457.38 280.96 446.86 288.46 436.55 296.46 426.47 304.77 416.63 313.13 407.04 321.31 397.7 329.06 388.63 336.16 379.82 342.42 371.26 351.34 355.01 357.03 339.46 358.09 324.94 357.44 310.94 356.53 297.6 357.14 284.52 367.01 265.23 371.51 258.8" stroke-dasharray="8 1" transform="rotate(52.52, 400, 400)" opacity="0.67"></path><path d="M370.44 269.79C374.12 265.01 382.59 269.22 384.76 276.98Q393.35 296.3 406.34 315.49 422.84 334.43 441.23 352.96 459.42 370.96 475.33 388.31 487.24 404.92 494.18 420.71 496.15 435.63 494.14 449.68 489.96 462.87 485.92 475.25 484.37 486.9 487.23 497.93 495.59 508.49 509.5 518.73C515.69 522.38 516.39 531.82 510.29 536.28Q495.22 546.81 480.16 555.52 465.09 561.26 450.03 563.25 434.96 561.24 419.89 555.48 404.83 546.75 389.76 536.22 374.7 525.29 359.63 515.43 344.57 507.95 329.5 503.85 314.43 503.68 299.37 507.47 284.3 514.71 269.23 524.42C263.13 528.77 256.72 525.12 257.57 517.57Q261.46 496.83 268.2 476.6 278.13 457 290.99 438.15 305.86 420.13 321.41 402.99 336.08 386.75 348.43 371.39 357.42 356.86 362.64 343.1 364.43 329.99 363.85 317.42 362.46 305.26 362.06 293.36 367.38 275.69 370.44 269.79" stroke-dasharray="9 1" transform="rotate(56.56, 400, 400)" opacity="0.62"></path><path d="M371.4 280.77C373.64 276.42 381.39 280.37 384.54 287.51Q395.02 305.29 408.8 322.99 424.86 340.48 441.77 357.67 457.89 374.45 471.68 390.72 481.94 406.39 488.03 421.4 489.99 435.71 488.56 449.27 485.06 462.08 481.22 474.15 478.85 485.54 479.58 496.28 484.56 506.48 494.25 516.23C498.87 519.65 498.47 528.31 492.95 532.2Q479.33 540.83 465.72 547.37 452.1 551.07 438.49 551.51 424.87 548.65 411.25 542.81 397.64 534.65 384.02 525.08 370.41 515.18 356.79 506.07 343.18 498.76 329.56 494.09 315.94 492.58 302.33 494.39 288.71 499.33 275.1 506.84C269.58 510.43 264.21 506.94 265.45 500.19Q270.49 481.77 278.21 463.93 288.63 446.75 301.3 430.29 315.38 414.58 329.72 399.64 343.12 385.45 354.45 371.99 362.92 359.19 368.16 346.99 370.37 335.3 370.26 324.02 368.94 313.03 367.8 302.24 369.81 286.15 371.4 280.77" stroke-dasharray="7 9" transform="rotate(60.599999999999994, 400, 400)" opacity="0.56"></path><path d="M374.38 291.77C375.43 287.84 382.5 291.5 386.4 298.02Q398.04 314.25 411.88 330.43 426.96 346.46 442.1 362.26 456.09 377.75 467.86 392.86 476.59 407.5 481.88 421.63 483.8 435.2 482.89 448.16 480.08 460.5 476.61 472.2 473.84 483.29 473.07 493.79 475.34 503.73 481.31 513.17C484.41 516.47 482.85 524.18 477.88 527.3Q465.63 533.85 453.38 538.27 441.13 540.16 428.88 539.33 416.63 535.87 404.38 530.1 392.13 522.55 379.87 513.93 367.62 505.04 355.37 496.71 343.12 489.72 330.87 484.71 318.62 482.16 306.37 482.29 294.12 485.11 281.86 490.34C276.9 493.05 272.69 489.6 274.35 483.72Q280.52 467.74 289.01 452.34 299.62 437.55 311.86 423.4 324.96 409.89 338.04 397.01 350.15 384.75 360.47 373.05 368.37 361.87 373.58 351.13 376.16 340.78 376.58 330.72 375.58 320.88 374.17 311.16 373.9 296.63 374.38 291.77" stroke-dasharray="8 4" transform="rotate(64.64, 400, 400)" opacity="0.34"></path><path d="M379.16 302.79C379.35 299.27 385.78 302.64 390.1 308.52Q402.09 323.2 415.31 337.83 428.95 352.37 442.13 366.74 454.01 380.88 463.86 394.75 471.18 408.27 475.73 421.4 477.58 434.1 477.11 446.34 474.97 458.08 472 469.3 469.19 480.01 467.49 490.21 467.78 499.9 470.72 509.12C472.51 512.33 469.91 519 465.46 521.29Q454.5 525.72 443.53 528.21 432.57 528.57 421.6 526.76 410.63 522.93 399.67 517.35 388.7 510.47 377.74 502.79 366.77 494.89 355.8 487.37 344.84 480.81 333.87 475.69 322.9 472.41 311.94 471.2 300.97 472.17 290 475.23C285.55 477.03 282.47 473.55 284.55 468.56Q291.66 455.02 300.59 441.99 311.08 429.5 322.63 417.53 334.62 406.08 346.37 395.13 357.19 384.64 366.48 374.57 373.79 364.88 378.89 355.52 381.78 346.43 382.74 337.54 380.06 311.47 379.16 302.79" stroke-dasharray="7 2" transform="rotate(68.68, 400, 400)" opacity="0.78"></path><path d="M385.37 313.81C385.06 310.7 390.84 313.75 395.23 319.01Q406.78 332.11 418.79 345.18 430.66 358.19 441.79 371.09 451.61 383.83 459.69 396.37 465.72 408.68 469.58 420.7 471.34 432.41 471.24 443.78 469.72 454.77 467.34 465.38 464.75 475.58 462.64 485.36 461.65 494.73 462.37 503.69C463.14 506.82 459.77 512.4 455.82 513.84Q446.07 516.33 436.32 517.17 426.57 516.31 416.82 513.82 407.07 509.82 397.32 504.58 387.57 498.39 377.82 491.63 368.07 484.71 358.32 478.03 348.57 472 338.82 466.97 329.07 463.25 319.32 461.06 309.56 460.53 299.81 461.7C295.86 462.64 293.79 459.16 296.21 455.02Q303.9 443.81 312.92 433.03 322.94 422.67 333.56 412.72 344.32 403.15 354.7 393.95 364.23 385.08 372.49 376.51 379.16 368.21 384.07 360.13 387.97 344.5 387.87 329.14 385.96 317.66 385.37 313.81" stroke-dasharray="1 4" transform="rotate(72.72, 400, 400)" opacity="0.23"></path><path d="M392.49 324.86C391.99 322.15 397.13 324.87 401.25 329.49Q411.68 341 422.05 352.49 431.95 363.95 441.01 375.33 448.89 386.62 455.35 397.77 460.22 408.76 463.44 419.57 465.07 430.16 465.27 440.51 464.31 450.6 462.55 460.41 460.38 469.93 458.27 479.13 456.65 488.03 455.97 496.59C456.02 499.6 452.24 504.13 448.75 504.82Q431.59 504.55 414.43 500.55 405.85 496.61 397.27 491.8 388.69 486.34 380.11 480.49 371.53 474.52 362.95 468.69 354.37 463.28 345.79 458.52 337.21 454.65 328.63 451.84 320.05 450.21 311.47 449.85C307.98 450.07 306.75 446.62 309.33 443.28Q317.19 434.23 325.87 425.5 335.12 417.07 344.61 408.93 354.03 401.07 363.01 393.45 371.26 386.05 378.49 378.85 388.43 365 394.25 351.47 393.41 331.52 392.49 324.86" stroke-dasharray="4 0" transform="rotate(76.76, 400, 400)" opacity="0.59"></path><path d="M399.91 335.9C399.49 333.6 403.98 335.98 407.55 339.95Q424.79 359.75 439.73 379.47 450.84 398.94 457.29 418.02 459.2 436.55 457.55 454.41 454.1 471.49 451.03 487.69C450.69 490.51 446.88 494.05 443.87 494.12Q429 492.28 414.13 487 399.26 479 384.4 469.34 369.53 459.32 354.66 450.28 339.79 443.42 324.92 439.67C321.91 439.34 321.28 436.04 323.85 433.42Q339.34 419.37 355.73 406.13 371.32 393.57 384.49 381.55 394.04 369.94 399.47 358.56 400.49 341.59 399.91 335.9" stroke-dasharray="4 10" transform="rotate(80.80000000000001, 400, 400)" opacity="0.42"></path><path d="M407.01 346.96C406.81 345.05 410.62 347.07 413.47 350.4Q426.79 366.96 437.92 383.5 446.15 399.9 451.15 416.09 453.01 431.96 452.29 447.45 449.9 462.46 447.03 476.93C446.55 479.48 443.06 482.14 440.51 481.78Q427.94 478.57 415.37 473.2 402.81 466.2 390.24 458.19 377.67 449.94 365.1 442.2 352.53 435.71 339.96 431.06C337.41 430.38 337.15 427.35 339.51 425.35Q353.15 414.55 366.85 404.2 379.6 394.24 390.48 384.57 398.82 375.1 404.26 365.74 406.92 351.67 407.01 346.96" stroke-dasharray="4 4" transform="rotate(84.84, 400, 400)" opacity="0.42"></path><path d="M413.18 358.04C413.28 356.53 416.36 358.17 418.42 360.84Q427.83 374.15 435.55 387.45 441.31 400.69 445 413.83 446.71 426.82 446.7 439.61 445.39 452.16 443.32 464.43C442.91 466.61 440 468.52 437.94 467.93Q427.72 464.17 417.49 459.23 407.27 453.41 397.05 447.05 386.82 440.53 376.6 434.24 366.37 428.57 356.15 423.83C354.08 423.02 353.97 420.39 355.98 418.91Q367.12 410.86 377.91 403.03 387.85 395.38 396.48 387.86 410.39 365.51 413.18 358.04" stroke-dasharray="10 5" transform="rotate(88.88, 400, 400)" opacity="0.32"></path><path d="M417.9 369.12C418.23 368 420.57 369.26 421.87 371.26Q432.6 391.3 438.85 411.28 440.75 431.03 439.31 450.39C439.07 452.11 436.93 453.4 435.34 452.75Q419.75 445.11 404.16 435.9 388.56 426.34 372.96 417.7C371.37 416.93 371.29 414.83 372.81 413.79Q388.87 402.46 402.47 391.35 415.12 374.71 417.9 369.12" stroke-dasharray="11 1" transform="rotate(92.92, 400, 400)" opacity="0.63"></path><path d="M420.8 380.23C421.21 379.47 422.78 380.33 423.46 381.68Q429.09 395.08 432.71 408.49 434.41 421.85 434.45 435.12C434.38 436.3 433.04 437.09 431.97 436.56Q421.41 430.92 410.84 424.76 400.28 418.44 389.71 412.35C388.64 411.76 388.53 410.3 389.49 409.63Q399.64 402.3 408.45 394.99 418.19 383.94 420.8 380.23" stroke-dasharray="8 10" transform="rotate(96.96, 400, 400)" opacity="0.68"></path></g></svg>